<svg width="16pt" height="18pt" viewBox="0 0 16 18">
<g>
<path style=" stroke:none;fill-rule:nonzero;fill:rgb(0%,0%,0%);fill-opacity:1;" d="M 15.167969 10.539062 C 15.269531 10.046875 15.335938 9.523438 15.335938 9 C 15.335938 5.007812 12.054688 1.78125 8.003906 1.78125 C 7.472656 1.78125 6.941406 1.84375 6.4375 1.949219 C 5.761719 1.429688 4.917969 1.125 4 1.125 C 1.792969 1.125 0 2.890625 0 5.0625 C 0 5.964844 0.3125 6.796875 0.832031 7.460938 C 0.730469 7.953125 0.664062 8.476562 0.664062 9 C 0.664062 12.992188 3.945312 16.21875 7.996094 16.21875 C 8.527344 16.21875 9.058594 16.15625 9.5625 16.050781 C 10.238281 16.566406 11.082031 16.871094 11.996094 16.871094 C 14.203125 16.871094 15.996094 15.105469 15.996094 12.933594 C 16 12.035156 15.6875 11.203125 15.167969 10.539062 Z M 8.21875 13.757812 C 5.875 13.757812 3.914062 12.730469 3.914062 11.472656 C 3.914062 10.910156 4.234375 10.394531 4.96875 10.394531 C 6.082031 10.394531 6.1875 11.972656 8.113281 11.972656 C 9.03125 11.972656 9.625 11.574219 9.625 11.050781 C 9.625 10.390625 9.054688 10.289062 8.125 10.066406 C 5.894531 9.523438 3.917969 9.292969 3.917969 7 C 3.917969 4.917969 6.011719 4.148438 7.8125 4.148438 C 9.78125 4.148438 11.769531 4.917969 11.769531 6.097656 C 11.769531 6.691406 11.363281 7.214844 10.6875 7.214844 C 9.679688 7.214844 9.644531 6.035156 8.011719 6.035156 C 7.09375 6.035156 6.511719 6.28125 6.511719 6.828125 C 6.511719 7.523438 7.253906 7.59375 8.980469 7.988281 C 10.457031 8.3125 12.21875 8.929688 12.21875 10.714844 C 12.21875 12.792969 10.179688 13.757812 8.21875 13.757812 Z M 8.21875 13.757812 "/>
</g>
</svg>
