<?xml version="1.0" encoding="UTF-8"?>
<svg xmlns="http://www.w3.org/2000/svg" xmlns:xlink="http://www.w3.org/1999/xlink" width="35pt" height="35pt" viewBox="0 0 35 35" version="1.1">
<g id="surface1">
<path style=" stroke:none;fill-rule:nonzero;fill:#fff;fill-opacity:1;" d="M 5.09375 32.910156 L 2.613281 32.910156 L 4.367188 31.15625 C 5.3125 30.210938 5.902344 28.980469 6.0625 27.644531 C 3.59375 26.027344 1.792969 23.894531 0.824219 21.453125 C -0.140625 19.011719 -0.261719 16.324219 0.476562 13.679688 C 1.359375 10.511719 3.429688 7.621094 6.304688 5.542969 C 9.429688 3.285156 13.320312 2.089844 17.558594 2.089844 C 22.894531 2.089844 27.394531 3.625 30.566406 6.523438 C 33.425781 9.136719 35 12.664062 35 16.449219 C 35 18.289062 34.625 20.082031 33.886719 21.773438 C 33.121094 23.523438 32.003906 25.078125 30.558594 26.402344 C 27.382812 29.316406 22.886719 30.855469 17.558594 30.855469 C 15.582031 30.855469 13.515625 30.589844 11.675781 30.105469 C 9.929688 31.894531 7.566406 32.910156 5.09375 32.910156 Z M 17.558594 4.144531 C 9.0625 4.144531 3.851562 9.210938 2.453125 14.230469 C 1.132812 18.976562 3.082031 23.460938 7.660156 26.226562 L 8.171875 26.535156 L 8.15625 27.132812 C 8.125 28.3125 7.84375 29.453125 7.339844 30.484375 C 8.570312 30.066406 9.683594 29.3125 10.558594 28.28125 L 10.992188 27.769531 L 11.636719 27.960938 C 13.445312 28.503906 15.546875 28.800781 17.558594 28.800781 C 28.128906 28.800781 32.945312 22.398438 32.945312 16.449219 C 32.945312 13.246094 31.609375 10.261719 29.179688 8.042969 C 26.390625 5.492188 22.375 4.144531 17.558594 4.144531 Z M 17.558594 4.144531 "/>
</g>
</svg>
