<?xml version="1.0" encoding="UTF-8"?>
<svg xmlns="http://www.w3.org/2000/svg" xmlns:xlink="http://www.w3.org/1999/xlink" width="35pt" height="35pt" viewBox="0 0 35 35" version="1.1">
<g id="surface1">
<path style=" stroke:none;fill-rule:nonzero;fill:#fff;fill-opacity:1;" d="M 31.421875 5.667969 L 18.023438 0.105469 C 17.6875 -0.0351562 17.3125 -0.0351562 16.976562 0.105469 L 3.578125 5.667969 C 3.066406 5.878906 2.734375 6.378906 2.734375 6.929688 L 2.734375 13.691406 C 2.734375 23.003906 8.363281 31.378906 16.984375 34.898438 C 17.316406 35.035156 17.683594 35.035156 18.015625 34.898438 C 26.636719 31.378906 32.265625 23.003906 32.265625 13.691406 L 32.265625 6.929688 C 32.265625 6.378906 31.933594 5.878906 31.421875 5.667969 Z M 29.53125 13.691406 C 29.53125 21.609375 24.882812 28.894531 17.5 32.148438 C 10.316406 28.980469 5.46875 21.824219 5.46875 13.691406 L 5.46875 7.84375 L 17.5 2.847656 L 29.53125 7.84375 Z M 15.988281 18.300781 L 21.867188 12.425781 C 22.398438 11.890625 23.265625 11.890625 23.796875 12.425781 C 24.332031 12.957031 24.332031 13.824219 23.796875 14.359375 L 16.957031 21.199219 C 16.421875 21.734375 15.554688 21.734375 15.023438 21.199219 L 11.203125 17.378906 C 10.667969 16.847656 10.667969 15.980469 11.203125 15.445312 C 11.734375 14.914062 12.601562 14.914062 13.132812 15.445312 Z M 15.988281 18.300781 "/>
</g>
</svg>
