<?xml version="1.0" encoding="UTF-8"?>
<svg xmlns="http://www.w3.org/2000/svg" xmlns:xlink="http://www.w3.org/1999/xlink" width="35pt" height="35pt" viewBox="0 0 35 35" version="1.1">
<g id="surface1">
<path style=" stroke:none;fill-rule:nonzero;fill:#fff;fill-opacity:1;" d="M 21.191406 12.988281 C 20.8125 12.988281 20.507812 13.292969 20.507812 13.671875 C 20.507812 14.050781 20.8125 14.355469 21.191406 14.355469 C 21.570312 14.355469 21.875 14.050781 21.875 13.671875 C 21.875 13.292969 21.570312 12.988281 21.191406 12.988281 Z M 21.191406 12.988281 "/>
<path style=" stroke:none;fill-rule:nonzero;fill:#fff;fill-opacity:1;" d="M 34.199219 30.332031 L 25.074219 21.207031 C 26.5625 18.96875 27.34375 16.375 27.34375 13.671875 C 27.34375 6.132812 21.210938 0 13.671875 0 C 6.132812 0 0 6.132812 0 13.671875 C 0 21.210938 6.132812 27.34375 13.671875 27.34375 C 16.375 27.34375 18.96875 26.5625 21.207031 25.074219 L 30.332031 34.199219 C 30.847656 34.714844 31.535156 35 32.265625 35 C 32.996094 35 33.683594 34.714844 34.199219 34.199219 C 34.714844 33.683594 35 32.996094 35 32.265625 C 35 31.535156 34.714844 30.847656 34.199219 30.332031 Z M 20.886719 23.632812 C 18.777344 25.167969 16.28125 25.976562 13.671875 25.976562 C 6.886719 25.976562 1.367188 20.457031 1.367188 13.671875 C 1.367188 6.886719 6.886719 1.367188 13.671875 1.367188 C 20.457031 1.367188 25.976562 6.886719 25.976562 13.671875 C 25.976562 16.28125 25.167969 18.777344 23.632812 20.886719 C 22.867188 21.941406 21.941406 22.867188 20.886719 23.632812 Z M 22.320312 24.253906 C 23.027344 23.675781 23.675781 23.027344 24.253906 22.320312 L 26.191406 24.261719 C 25.601562 24.957031 24.957031 25.601562 24.261719 26.191406 Z M 33.230469 33.230469 C 32.972656 33.492188 32.628906 33.632812 32.265625 33.632812 C 31.902344 33.632812 31.558594 33.492188 31.300781 33.230469 L 25.230469 27.164062 C 25.921875 26.566406 26.566406 25.921875 27.164062 25.230469 L 33.230469 31.300781 C 33.492188 31.558594 33.632812 31.902344 33.632812 32.265625 C 33.632812 32.628906 33.492188 32.972656 33.230469 33.230469 Z M 33.230469 33.230469 "/>
<path style=" stroke:none;fill-rule:nonzero;fill:#fff;fill-opacity:1;" d="M 13.671875 2.734375 C 7.640625 2.734375 2.734375 7.640625 2.734375 13.671875 C 2.734375 19.703125 7.640625 24.609375 13.671875 24.609375 C 19.703125 24.609375 24.609375 19.703125 24.609375 13.671875 C 24.609375 7.640625 19.703125 2.734375 13.671875 2.734375 Z M 13.671875 23.242188 C 8.394531 23.242188 4.101562 18.949219 4.101562 13.671875 C 4.101562 8.394531 8.394531 4.101562 13.671875 4.101562 C 18.949219 4.101562 23.242188 8.394531 23.242188 13.671875 C 23.242188 18.949219 18.949219 23.242188 13.671875 23.242188 Z M 13.671875 23.242188 "/>
<path style=" stroke:none;fill-rule:nonzero;fill:#fff;fill-opacity:1;" d="M 21.332031 10.738281 C 20.742188 9.207031 19.71875 7.894531 18.367188 6.949219 C 16.984375 5.980469 15.363281 5.46875 13.671875 5.46875 C 13.292969 5.46875 12.988281 5.773438 12.988281 6.152344 C 12.988281 6.53125 13.292969 6.835938 13.671875 6.835938 C 16.480469 6.835938 19.046875 8.601562 20.054688 11.226562 C 20.160156 11.5 20.417969 11.667969 20.695312 11.667969 C 20.777344 11.667969 20.859375 11.652344 20.941406 11.621094 C 21.292969 11.484375 21.46875 11.089844 21.332031 10.738281 Z M 21.332031 10.738281 "/>
</g>
</svg>
