<?xml version="1.0" encoding="UTF-8"?>
<svg xmlns="http://www.w3.org/2000/svg" xmlns:xlink="http://www.w3.org/1999/xlink" width="35pt" height="35pt" viewBox="0 0 35 35" version="1.1">
<g id="surface1">
<path style=" stroke:none;fill-rule:nonzero;fill:#fff;fill-opacity:1;" d="M 33.207031 13.824219 L 30.75 13.410156 C 30.496094 12.582031 30.167969 11.785156 29.765625 11.027344 L 31.210938 9 C 31.828125 8.136719 31.730469 6.960938 30.976562 6.214844 L 28.800781 4.035156 C 28.390625 3.625 27.847656 3.398438 27.273438 3.398438 C 26.816406 3.398438 26.386719 3.539062 26.019531 3.800781 L 23.988281 5.25 C 23.199219 4.832031 22.371094 4.488281 21.515625 4.234375 L 21.109375 1.804688 C 20.933594 0.761719 20.035156 0 18.972656 0 L 15.894531 0 C 14.835938 0 13.9375 0.761719 13.761719 1.804688 L 13.335938 4.292969 C 12.515625 4.546875 11.71875 4.882812 10.960938 5.292969 L 8.949219 3.847656 C 8.582031 3.582031 8.144531 3.445312 7.691406 3.445312 C 7.113281 3.445312 6.566406 3.671875 6.164062 4.078125 L 3.976562 6.257812 C 3.230469 7.003906 3.128906 8.179688 3.742188 9.042969 L 5.207031 11.097656 C 4.804688 11.867188 4.480469 12.664062 4.234375 13.488281 L 1.804688 13.898438 C 0.761719 14.074219 0 14.972656 0 16.035156 L 0 19.113281 C 0 20.171875 0.761719 21.070312 1.804688 21.246094 L 4.292969 21.671875 C 4.546875 22.488281 4.882812 23.285156 5.292969 24.046875 L 3.851562 26.050781 C 3.238281 26.914062 3.335938 28.089844 4.085938 28.835938 L 6.265625 31.015625 C 6.675781 31.425781 7.214844 31.652344 7.792969 31.652344 C 8.246094 31.652344 8.679688 31.511719 9.042969 31.25 L 11.097656 29.785156 C 11.835938 30.175781 12.613281 30.488281 13.410156 30.738281 L 13.820312 33.195312 C 13.992188 34.238281 14.894531 35 15.953125 35 L 19.039062 35 C 20.097656 35 21 34.238281 21.175781 33.195312 L 21.589844 30.738281 C 22.417969 30.480469 23.214844 30.152344 23.972656 29.75 L 26 31.199219 C 26.363281 31.460938 26.804688 31.601562 27.257812 31.601562 C 27.835938 31.601562 28.375 31.375 28.785156 30.964844 L 30.964844 28.785156 C 31.710938 28.039062 31.8125 26.863281 31.199219 26 L 29.75 23.96875 C 30.152344 23.199219 30.488281 22.402344 30.738281 21.582031 L 33.195312 21.175781 C 34.238281 21 35 20.097656 35 19.039062 L 35 15.960938 C 35.015625 14.902344 34.253906 14 33.207031 13.824219 Z M 33.039062 19.039062 C 33.039062 19.132812 32.972656 19.214844 32.878906 19.230469 L 29.808594 19.742188 C 29.421875 19.808594 29.113281 20.09375 29.019531 20.464844 C 28.742188 21.539062 28.316406 22.570312 27.746094 23.527344 C 27.550781 23.863281 27.5625 24.28125 27.789062 24.601562 L 29.597656 27.148438 C 29.648438 27.21875 29.640625 27.332031 29.574219 27.394531 L 27.394531 29.574219 C 27.34375 29.625 27.292969 29.632812 27.257812 29.632812 C 27.214844 29.632812 27.175781 29.617188 27.148438 29.597656 L 24.609375 27.789062 C 24.296875 27.5625 23.871094 27.550781 23.535156 27.746094 C 22.578125 28.316406 21.546875 28.742188 20.472656 29.019531 C 20.089844 29.113281 19.808594 29.429688 19.75 29.808594 L 19.230469 32.878906 C 19.214844 32.972656 19.132812 33.039062 19.039062 33.039062 L 15.960938 33.039062 C 15.867188 33.039062 15.785156 32.972656 15.769531 32.878906 L 15.257812 29.808594 C 15.191406 29.421875 14.90625 29.113281 14.535156 29.019531 C 13.488281 28.75 12.480469 28.332031 11.539062 27.789062 C 11.382812 27.703125 11.207031 27.660156 11.039062 27.660156 C 10.84375 27.660156 10.636719 27.71875 10.46875 27.84375 L 7.910156 29.664062 C 7.875 29.683594 7.835938 29.699219 7.800781 29.699219 C 7.773438 29.699219 7.714844 29.691406 7.664062 29.640625 L 5.484375 27.460938 C 5.417969 27.394531 5.410156 27.292969 5.460938 27.214844 L 7.261719 24.691406 C 7.488281 24.367188 7.5 23.945312 7.304688 23.609375 C 6.734375 22.65625 6.296875 21.628906 6.015625 20.550781 C 5.914062 20.179688 5.609375 19.894531 5.226562 19.828125 L 2.136719 19.300781 C 2.039062 19.289062 1.972656 19.207031 1.972656 19.113281 L 1.972656 16.035156 C 1.972656 15.9375 2.039062 15.859375 2.136719 15.84375 L 5.183594 15.332031 C 5.570312 15.265625 5.886719 14.980469 5.980469 14.601562 C 6.25 13.527344 6.667969 12.488281 7.230469 11.53125 C 7.429688 11.195312 7.40625 10.777344 7.179688 10.460938 L 5.359375 7.902344 C 5.308594 7.832031 5.316406 7.722656 5.382812 7.65625 L 7.558594 5.476562 C 7.609375 5.425781 7.664062 5.417969 7.699219 5.417969 C 7.742188 5.417969 7.78125 5.433594 7.808594 5.453125 L 10.332031 7.253906 C 10.652344 7.480469 11.078125 7.496094 11.414062 7.296875 C 12.363281 6.726562 13.394531 6.289062 14.46875 6.011719 C 14.84375 5.90625 15.128906 5.601562 15.191406 5.21875 L 15.71875 2.128906 C 15.734375 2.03125 15.816406 1.96875 15.910156 1.96875 L 18.988281 1.96875 C 19.082031 1.96875 19.164062 2.03125 19.179688 2.128906 L 19.691406 5.175781 C 19.753906 5.5625 20.039062 5.878906 20.421875 5.972656 C 21.523438 6.25 22.578125 6.683594 23.558594 7.261719 C 23.894531 7.457031 24.308594 7.441406 24.632812 7.214844 L 27.15625 5.402344 C 27.191406 5.382812 27.226562 5.367188 27.265625 5.367188 C 27.292969 5.367188 27.351562 5.375 27.402344 5.425781 L 29.582031 7.605469 C 29.648438 7.667969 29.65625 7.773438 29.605469 7.851562 L 27.796875 10.390625 C 27.570312 10.703125 27.558594 11.128906 27.753906 11.464844 C 28.324219 12.421875 28.75 13.453125 29.027344 14.527344 C 29.121094 14.90625 29.4375 15.191406 29.816406 15.25 L 32.886719 15.769531 C 32.980469 15.785156 33.046875 15.867188 33.046875 15.960938 L 33.046875 19.039062 Z M 33.039062 19.039062 "/>
<path style=" stroke:none;fill-rule:nonzero;fill:#fff;fill-opacity:1;" d="M 17.503906 9.945312 C 13.335938 9.945312 9.949219 13.328125 9.949219 17.496094 C 9.949219 21.664062 13.335938 25.050781 17.503906 25.050781 C 21.671875 25.050781 25.054688 21.664062 25.054688 17.496094 C 25.054688 13.328125 21.671875 9.945312 17.503906 9.945312 Z M 17.503906 23.074219 C 14.425781 23.074219 11.925781 20.574219 11.925781 17.496094 C 11.925781 14.417969 14.425781 11.917969 17.503906 11.917969 C 20.582031 11.917969 23.082031 14.417969 23.082031 17.496094 C 23.082031 20.574219 20.582031 23.074219 17.503906 23.074219 Z M 17.503906 23.074219 "/>
</g>
</svg>
