<?xml version="1.0" encoding="UTF-8"?>
<svg xmlns="http://www.w3.org/2000/svg" xmlns:xlink="http://www.w3.org/1999/xlink" width="70pt" height="70pt" viewBox="0 0 70 70" version="1.1">
<g id="surface1">
<path style=" stroke:none;fill-rule:nonzero;fill:#fff;fill-opacity:1;" d="M 53.59375 5.46875 L 51.40625 5.46875 C 51.40625 3.050781 49.449219 1.09375 47.03125 1.09375 C 44.613281 1.09375 42.65625 3.050781 42.65625 5.46875 L 12.03125 5.46875 C 9.617188 5.472656 7.660156 7.429688 7.65625 9.84375 L 7.65625 14.21875 L 6.5625 14.21875 C 5.957031 14.21875 5.46875 14.707031 5.46875 15.3125 C 5.46875 15.917969 5.957031 16.40625 6.5625 16.40625 L 7.65625 16.40625 L 7.65625 20.78125 L 6.5625 20.78125 C 5.957031 20.78125 5.46875 21.269531 5.46875 21.875 C 5.46875 22.480469 5.957031 22.96875 6.5625 22.96875 L 7.65625 22.96875 L 7.65625 27.34375 L 6.5625 27.34375 C 5.957031 27.34375 5.46875 27.832031 5.46875 28.4375 C 5.46875 29.042969 5.957031 29.53125 6.5625 29.53125 L 7.65625 29.53125 L 7.65625 33.90625 L 6.5625 33.90625 C 5.957031 33.90625 5.46875 34.394531 5.46875 35 C 5.46875 35.605469 5.957031 36.09375 6.5625 36.09375 L 7.65625 36.09375 L 7.65625 40.46875 L 6.5625 40.46875 C 5.957031 40.46875 5.46875 40.957031 5.46875 41.5625 C 5.46875 42.167969 5.957031 42.65625 6.5625 42.65625 L 7.65625 42.65625 L 7.65625 47.03125 L 6.5625 47.03125 C 5.957031 47.03125 5.46875 47.519531 5.46875 48.125 C 5.46875 48.730469 5.957031 49.21875 6.5625 49.21875 L 7.65625 49.21875 L 7.65625 53.59375 L 6.5625 53.59375 C 5.957031 53.59375 5.46875 54.082031 5.46875 54.6875 C 5.46875 55.292969 5.957031 55.78125 6.5625 55.78125 L 7.65625 55.78125 L 7.65625 60.15625 L 6.5625 60.15625 C 5.957031 60.15625 5.46875 60.644531 5.46875 61.25 C 5.46875 61.855469 5.957031 62.34375 6.5625 62.34375 L 7.65625 62.34375 L 7.65625 64.53125 C 7.660156 66.945312 9.617188 68.902344 12.03125 68.90625 L 53.59375 68.90625 C 56.007812 68.902344 57.964844 66.945312 57.96875 64.53125 L 57.96875 9.84375 C 57.964844 7.429688 56.007812 5.472656 53.59375 5.46875 Z M 44.84375 5.46875 C 44.84375 4.261719 45.824219 3.28125 47.03125 3.28125 C 48.238281 3.28125 49.21875 4.261719 49.21875 5.46875 L 49.21875 8.75 L 44.84375 8.75 Z M 44.84375 10.9375 L 49.21875 10.9375 L 49.21875 40.46875 L 44.84375 40.46875 Z M 44.84375 42.65625 L 49.21875 42.65625 L 49.21875 43.492188 L 47.03125 47.867188 L 44.84375 43.492188 Z M 14.21875 66.71875 L 12.03125 66.71875 C 10.824219 66.71875 9.84375 65.738281 9.84375 64.53125 L 9.84375 62.34375 L 10.9375 62.34375 C 11.542969 62.34375 12.03125 61.855469 12.03125 61.25 C 12.03125 60.644531 11.542969 60.15625 10.9375 60.15625 L 9.84375 60.15625 L 9.84375 55.78125 L 10.9375 55.78125 C 11.542969 55.78125 12.03125 55.292969 12.03125 54.6875 C 12.03125 54.082031 11.542969 53.59375 10.9375 53.59375 L 9.84375 53.59375 L 9.84375 49.21875 L 10.9375 49.21875 C 11.542969 49.21875 12.03125 48.730469 12.03125 48.125 C 12.03125 47.519531 11.542969 47.03125 10.9375 47.03125 L 9.84375 47.03125 L 9.84375 42.65625 L 10.9375 42.65625 C 11.542969 42.65625 12.03125 42.167969 12.03125 41.5625 C 12.03125 40.957031 11.542969 40.46875 10.9375 40.46875 L 9.84375 40.46875 L 9.84375 36.09375 L 10.9375 36.09375 C 11.542969 36.09375 12.03125 35.605469 12.03125 35 C 12.03125 34.394531 11.542969 33.90625 10.9375 33.90625 L 9.84375 33.90625 L 9.84375 29.53125 L 10.9375 29.53125 C 11.542969 29.53125 12.03125 29.042969 12.03125 28.4375 C 12.03125 27.832031 11.542969 27.34375 10.9375 27.34375 L 9.84375 27.34375 L 9.84375 22.96875 L 10.9375 22.96875 C 11.542969 22.96875 12.03125 22.480469 12.03125 21.875 C 12.03125 21.269531 11.542969 20.78125 10.9375 20.78125 L 9.84375 20.78125 L 9.84375 16.40625 L 10.9375 16.40625 C 11.542969 16.40625 12.03125 15.917969 12.03125 15.3125 C 12.03125 14.707031 11.542969 14.21875 10.9375 14.21875 L 9.84375 14.21875 L 9.84375 9.84375 C 9.84375 8.636719 10.824219 7.65625 12.03125 7.65625 L 14.21875 7.65625 Z M 55.78125 64.53125 C 55.78125 65.738281 54.800781 66.71875 53.59375 66.71875 L 16.40625 66.71875 L 16.40625 7.65625 L 42.65625 7.65625 L 42.65625 14.21875 L 41.5625 14.21875 L 41.5625 12.03125 C 41.5625 11.425781 41.074219 10.9375 40.46875 10.9375 C 39.863281 10.9375 39.375 11.425781 39.375 12.03125 L 39.375 25.15625 C 39.375 25.761719 39.863281 26.25 40.46875 26.25 C 41.074219 26.25 41.5625 25.761719 41.5625 25.15625 L 41.5625 16.40625 L 42.65625 16.40625 L 42.65625 43.75 C 42.65625 43.917969 42.695312 44.085938 42.769531 44.238281 L 46.050781 50.800781 C 46.238281 51.171875 46.617188 51.40625 47.03125 51.40625 C 47.445312 51.40625 47.824219 51.171875 48.011719 50.800781 L 51.292969 44.238281 C 51.367188 44.085938 51.40625 43.917969 51.40625 43.75 L 51.40625 7.65625 L 53.59375 7.65625 C 54.800781 7.65625 55.78125 8.636719 55.78125 9.84375 Z M 55.78125 64.53125 "/>
<path style=" stroke:none;fill-rule:nonzero;fill:#fff;fill-opacity:1;" d="M 48.125 62.34375 L 36.09375 62.34375 C 35.488281 62.34375 35 62.832031 35 63.4375 C 35 64.042969 35.488281 64.53125 36.09375 64.53125 L 48.125 64.53125 C 48.730469 64.53125 49.21875 64.042969 49.21875 63.4375 C 49.21875 62.832031 48.730469 62.34375 48.125 62.34375 Z M 48.125 62.34375 "/>
<path style=" stroke:none;fill-rule:nonzero;fill:#fff;fill-opacity:1;" d="M 52.5 62.34375 L 51.40625 62.34375 C 50.800781 62.34375 50.3125 62.832031 50.3125 63.4375 C 50.3125 64.042969 50.800781 64.53125 51.40625 64.53125 L 52.5 64.53125 C 53.105469 64.53125 53.59375 64.042969 53.59375 63.4375 C 53.59375 62.832031 53.105469 62.34375 52.5 62.34375 Z M 52.5 62.34375 "/>
<path style=" stroke:none;fill-rule:nonzero;fill:#fff;fill-opacity:1;" d="M 30.625 9.84375 L 19.6875 9.84375 C 19.082031 9.84375 18.59375 10.332031 18.59375 10.9375 C 18.59375 11.542969 19.082031 12.03125 19.6875 12.03125 L 30.625 12.03125 C 31.230469 12.03125 31.71875 11.542969 31.71875 10.9375 C 31.71875 10.332031 31.230469 9.84375 30.625 9.84375 Z M 30.625 9.84375 "/>
<path style=" stroke:none;fill-rule:nonzero;fill:#fff;fill-opacity:1;" d="M 22.96875 13.125 L 19.6875 13.125 C 19.082031 13.125 18.59375 13.613281 18.59375 14.21875 C 18.59375 14.824219 19.082031 15.3125 19.6875 15.3125 L 22.96875 15.3125 C 23.574219 15.3125 24.0625 14.824219 24.0625 14.21875 C 24.0625 13.613281 23.574219 13.125 22.96875 13.125 Z M 22.96875 13.125 "/>
</g>
</svg>
