<?xml version="1.0" encoding="UTF-8"?>
<svg xmlns="http://www.w3.org/2000/svg" xmlns:xlink="http://www.w3.org/1999/xlink" width="65pt" height="65pt" viewBox="0 0 65 65" version="1.1">
<g id="surface1">
<path style=" stroke:none;fill-rule:nonzero;fill:rgb(0%,0%,0%);fill-opacity:1;" d="M 32.5 0 C 14.550781 0 0 14.550781 0 32.5 C 0 50.449219 14.550781 65 32.5 65 C 50.449219 65 65 50.449219 65 32.5 C 65 14.550781 50.449219 0 32.5 0 Z M 32.5 59.582031 C 17.542969 59.582031 5.417969 47.457031 5.417969 32.5 C 5.417969 17.542969 17.542969 5.417969 32.5 5.417969 C 47.457031 5.417969 59.582031 17.542969 59.582031 32.5 C 59.582031 47.457031 47.457031 59.582031 32.5 59.582031 Z M 32.5 59.582031 "/>
<path style=" stroke:none;fill-rule:nonzero;fill:rgb(0%,0%,0%);fill-opacity:1;" d="M 44.125 25.167969 L 32.5 36.792969 L 20.875 25.167969 C 19.816406 24.109375 18.101562 24.109375 17.042969 25.167969 C 15.984375 26.226562 15.984375 27.941406 17.042969 29 L 30.585938 42.539062 C 31.640625 43.597656 33.359375 43.597656 34.414062 42.539062 L 47.957031 29 C 49.015625 27.941406 49.015625 26.226562 47.957031 25.167969 C 46.898438 24.109375 45.183594 24.109375 44.125 25.167969 Z M 44.125 25.167969 "/>
</g>
</svg>
